<mxfile host="app.diagrams.net" modified="2024-03-13T08:27:22.890Z" agent="Mozilla/5.0 (Macintosh; Intel Mac OS X 10_15_7) AppleWebKit/537.36 (KHTML, like Gecko) Chrome/122.0.0.0 Safari/537.36" etag="NdN6XkO2mJ0qLDj6TT7V" version="24.0.5" type="github">
  <diagram name="第 1 页" id="XXVcjnQIc4xrYylt_Kie">
    <mxGraphModel dx="2074" dy="1150" grid="1" gridSize="10" guides="1" tooltips="1" connect="1" arrows="1" fold="1" page="1" pageScale="1" pageWidth="827" pageHeight="1169" math="0" shadow="0">
      <root>
        <mxCell id="0" />
        <mxCell id="1" parent="0" />
        <mxCell id="0QPtCIcyjztVAp6PCUbq-1" value="系统用户" style="shape=umlActor;verticalLabelPosition=bottom;verticalAlign=top;html=1;outlineConnect=0;" vertex="1" parent="1">
          <mxGeometry x="210" y="420" width="30" height="60" as="geometry" />
        </mxCell>
        <mxCell id="0QPtCIcyjztVAp6PCUbq-2" value="用户信息修改" style="ellipse;whiteSpace=wrap;html=1;" vertex="1" parent="1">
          <mxGeometry x="390" y="350" width="100" height="60" as="geometry" />
        </mxCell>
        <mxCell id="0QPtCIcyjztVAp6PCUbq-3" value="用户密码修改" style="ellipse;whiteSpace=wrap;html=1;" vertex="1" parent="1">
          <mxGeometry x="390" y="480" width="100" height="60" as="geometry" />
        </mxCell>
        <mxCell id="0QPtCIcyjztVAp6PCUbq-6" value="" style="endArrow=classic;html=1;rounded=0;" edge="1" parent="1" target="0QPtCIcyjztVAp6PCUbq-2">
          <mxGeometry width="50" height="50" relative="1" as="geometry">
            <mxPoint x="250" y="430" as="sourcePoint" />
            <mxPoint x="440" y="560" as="targetPoint" />
          </mxGeometry>
        </mxCell>
        <mxCell id="0QPtCIcyjztVAp6PCUbq-7" value="" style="endArrow=classic;html=1;rounded=0;exitX=1;exitY=0.3333333333333333;exitDx=0;exitDy=0;exitPerimeter=0;entryX=0.03;entryY=0.367;entryDx=0;entryDy=0;entryPerimeter=0;" edge="1" parent="1" target="0QPtCIcyjztVAp6PCUbq-3">
          <mxGeometry width="50" height="50" relative="1" as="geometry">
            <mxPoint x="250" y="450" as="sourcePoint" />
            <mxPoint x="405" y="403" as="targetPoint" />
          </mxGeometry>
        </mxCell>
      </root>
    </mxGraphModel>
  </diagram>
</mxfile>
